<svg width="24" height="24" viewBox="0 0 24 24" fill="none" xmlns="http://www.w3.org/2000/svg">
<path d="M9 11.25H6.75C6.336 11.25 6 10.914 6 10.5C6 10.086 6.336 9.75 6.75 9.75H9C9.414 9.75 9.75 10.086 9.75 10.5C9.75 10.914 9.414 11.25 9 11.25ZM20.8193 20.7382C20.6707 20.9107 20.4608 21 20.2493 21C20.0767 21 19.9028 20.9408 19.7618 20.8193L17.88 19.206C17.0992 19.857 16.0957 20.2493 15 20.2493C12.5145 20.2493 10.5 18.2348 10.5 15.7493C10.5 13.2638 12.5145 11.2492 15 11.2492C17.4855 11.2492 19.5 13.2638 19.5 15.7493C19.5 16.5968 19.2615 17.3872 18.8535 18.0645L20.7382 19.68C21.0525 19.9492 21.0893 20.424 20.8193 20.7382ZM15.7343 17.4945L17.7615 15.534C18.06 15.2467 18.0698 14.772 17.7833 14.4735C17.496 14.1743 17.0205 14.166 16.7228 14.4517L14.688 16.4198C14.5807 16.5255 14.4038 16.5278 14.2965 16.4213L13.281 15.423C12.984 15.132 12.51 15.1372 12.2205 15.4335C11.9303 15.7297 11.9347 16.2038 12.231 16.494L13.2465 17.493C13.5915 17.8297 14.043 17.9985 14.4937 17.9985C14.9445 17.9985 15.3945 17.8298 15.7335 17.4952L15.7343 17.4945ZM11.25 20.25C11.25 20.664 10.914 21 10.5 21H6.75C4.68225 21 3 19.3177 3 17.25V6.75C3 4.68225 4.68225 3 6.75 3H10.1363C11.5388 3 12.8565 3.546 13.8488 4.5375L16.4625 7.15125C17.1285 7.81725 17.6033 8.65125 17.8373 9.564C17.895 9.78825 17.8455 10.0268 17.703 10.2098C17.5605 10.3927 17.3422 10.5 17.1105 10.5H12.7508C11.5103 10.5 10.5008 9.4905 10.5008 8.25V4.51725C10.3808 4.506 10.2592 4.5 10.137 4.5H6.75075C5.51025 4.5 4.50075 5.5095 4.50075 6.75V17.25C4.50075 18.4905 5.51025 19.5 6.75075 19.5H10.5008C10.9148 19.5 11.2508 19.836 11.2508 20.25H11.25ZM12 8.25C12 8.66325 12.3368 9 12.75 9H16.0035C15.8392 8.7135 15.6368 8.448 15.4012 8.2125L12.7875 5.59875C12.549 5.36025 12.2843 5.1585 12 4.99425V8.25ZM8.25 12.75H6.75C6.336 12.75 6 13.086 6 13.5C6 13.914 6.336 14.25 6.75 14.25H8.25C8.664 14.25 9 13.914 9 13.5C9 13.086 8.664 12.75 8.25 12.75ZM8.25 15.75H6.75C6.336 15.75 6 16.086 6 16.5C6 16.914 6.336 17.25 6.75 17.25H8.25C8.664 17.25 9 16.914 9 16.5C9 16.086 8.664 15.75 8.25 15.75Z" fill="#0065BD"/>
</svg>
