<svg width="18" height="18" viewBox="0 0 18 18" fill="none" xmlns="http://www.w3.org/2000/svg">
<path d="M8.99995 1.50018C9.99863 1.50345 10.9867 1.70399 11.9071 2.09019C12.8275 2.4764 13.6618 3.0406 14.3618 3.75015H12.0114C11.8117 3.75015 11.6202 3.82917 11.479 3.96982C11.3379 4.11047 11.2585 4.30123 11.2585 4.50014C11.2585 4.69905 11.3379 4.88981 11.479 5.03046C11.6202 5.17111 11.8117 5.25013 12.0114 5.25013H15.1305C15.5012 5.24993 15.8567 5.10313 16.1189 4.84199C16.381 4.58084 16.5284 4.22671 16.5286 3.8574V0.750196C16.5286 0.551286 16.4493 0.360524 16.3081 0.219874C16.1669 0.0792234 15.9754 0.00020697 15.7757 0.00020697C15.576 0.00020697 15.3846 0.0792234 15.2434 0.219874C15.1022 0.360524 15.0229 0.551286 15.0229 0.750196V2.30867C13.7785 1.19228 12.2467 0.443008 10.5991 0.144767C8.95148 -0.153474 7.25303 0.0110908 5.69397 0.620033C4.13491 1.22898 2.7768 2.25825 1.77172 3.5926C0.766649 4.92694 0.154296 6.51367 0.00324037 8.17509C-0.00648408 8.27953 0.00573669 8.38484 0.039124 8.48432C0.0725114 8.5838 0.126333 8.67525 0.19716 8.75287C0.267987 8.83048 0.354266 8.89254 0.4505 8.9351C0.546733 8.97767 0.650812 8.99979 0.756103 9.00007C0.940244 9.00241 1.11863 8.9362 1.25635 8.81441C1.39407 8.69262 1.4812 8.52401 1.50068 8.34158C1.66828 6.47467 2.53058 4.73766 3.91819 3.47178C5.3058 2.2059 7.11841 1.50265 8.99995 1.50018Z" fill="black"/>
<path d="M17.2459 9.00006C17.0617 8.99772 16.8834 9.06393 16.7456 9.18572C16.6079 9.30752 16.5208 9.47613 16.5013 9.65855C16.3769 11.086 15.844 12.4478 14.966 13.5826C14.0879 14.7174 12.9015 15.5775 11.5476 16.0609C10.1936 16.5442 8.7289 16.6305 7.32718 16.3095C5.92547 15.9885 4.64559 15.2738 3.6394 14.25H5.98983C6.18951 14.25 6.381 14.171 6.52219 14.0303C6.66338 13.8897 6.7427 13.6989 6.7427 13.5C6.7427 13.3011 6.66338 13.1103 6.52219 12.9697C6.381 12.829 6.18951 12.75 5.98983 12.75H2.87072C2.6871 12.7499 2.50525 12.7859 2.33559 12.8558C2.16592 12.9258 2.01176 13.0284 1.88192 13.1577C1.75208 13.2871 1.6491 13.4406 1.57888 13.6096C1.50865 13.7787 1.47256 13.9598 1.47266 14.1427V17.2499C1.47266 17.4488 1.55198 17.6396 1.69316 17.7803C1.83435 17.9209 2.02585 17.9999 2.22552 17.9999C2.42519 17.9999 2.61668 17.9209 2.75787 17.7803C2.89906 17.6396 2.97838 17.4488 2.97838 17.2499V15.6915C4.22274 16.8079 5.7545 17.5571 7.40213 17.8554C9.04976 18.1536 10.7482 17.989 12.3073 17.3801C13.8663 16.7712 15.2244 15.7419 16.2295 14.4075C17.2346 13.0732 17.8469 11.4865 17.998 9.82505C18.0077 9.72061 17.9955 9.61529 17.9621 9.51581C17.9287 9.41634 17.8749 9.32488 17.8041 9.24727C17.7332 9.16965 17.647 9.10759 17.5507 9.06503C17.4545 9.02247 17.3512 9.00034 17.2459 9.00006Z" fill="black"/>
</svg>
