<svg width="24" height="24" viewBox="0 0 24 24" fill="none" xmlns="http://www.w3.org/2000/svg">
<path d="M9.84314 8.08887C9.75752 8.03035 9.66054 7.9997 9.5619 8C9.46326 8.0003 9.36641 8.03154 9.28105 8.09059C9.19568 8.14965 9.12479 8.23444 9.07547 8.33649C9.02615 8.43855 9.00013 8.55428 9 8.67212V15.3268C8.99996 15.4447 9.02587 15.5606 9.07512 15.6628C9.12437 15.765 9.19525 15.8499 9.28064 15.9091C9.36603 15.9683 9.46294 15.9996 9.56166 16C9.66039 16.0003 9.75745 15.9697 9.84314 15.9111L14.7161 12.5844C14.8023 12.5255 14.874 12.4405 14.9239 12.3378C14.9737 12.2352 15 12.1187 15 12C15 11.8813 14.9737 11.7648 14.9239 11.6622C14.874 11.5595 14.8023 11.4745 14.7161 11.4156L9.84314 8.08887Z" stroke="black" stroke-width="1.5" stroke-linecap="round" stroke-linejoin="round"/>
<rect x="3.75" y="3.75" width="16.5" height="16.5" rx="2.25" stroke="black" stroke-width="1.5"/>
</svg>
