<svg width="24" height="24" viewBox="0 0 24 24" fill="none" xmlns="http://www.w3.org/2000/svg">
<path d="M6 13.75H13.5M6 16.75H13.5M16.5 7.75H19.875C20.496 7.75 21 8.254 21 8.875V18.25C21 18.8467 20.7629 19.419 20.341 19.841C19.919 20.2629 19.3467 20.5 18.75 20.5M16.5 7.75V18.25C16.5 18.8467 16.7371 19.419 17.159 19.841C17.581 20.2629 18.1533 20.5 18.75 20.5M16.5 7.75V5.125C16.5 4.504 15.996 4 15.375 4H4.125C3.504 4 3 4.504 3 5.125V18.25C3 18.8467 3.23705 19.419 3.65901 19.841C4.08097 20.2629 4.65326 20.5 5.25 20.5H18.75M6 7.75H13.5V10.75H6V7.75Z" stroke="black" stroke-width="1.5" stroke-linecap="round" stroke-linejoin="round"/>
</svg>
