<svg width="24" height="24" viewBox="0 0 24 24" fill="none" xmlns="http://www.w3.org/2000/svg">
<path d="M10.875 16H16.125C16.3571 16 16.5796 15.8946 16.7437 15.7071C16.9078 15.5196 17 15.2652 17 15C17 14.7348 16.9078 14.4804 16.7437 14.2929C16.5796 14.1054 16.3571 14 16.125 14H10.875C10.6429 14 10.4204 14.1054 10.2563 14.2929C10.0922 14.4804 10 14.7348 10 15C10 15.2652 10.0922 15.5196 10.2563 15.7071C10.4204 15.8946 10.6429 16 10.875 16Z" fill="black"/>
<path d="M17.25 3H6.75C5.7558 3.00119 4.80267 3.39666 4.09966 4.09966C3.39666 4.80267 3.00119 5.7558 3 6.75L3 7.5C3.00022 7.81631 3.06713 8.12901 3.19636 8.41772C3.32559 8.70642 3.51424 8.96463 3.75 9.1755V17.25C3.75119 18.2442 4.14666 19.1973 4.84966 19.9003C5.55267 20.6033 6.5058 20.9988 7.5 21H16.5C17.4942 20.9988 18.4473 20.6033 19.1503 19.9003C19.8533 19.1973 20.2488 18.2442 20.25 17.25V9.1755C20.4858 8.96463 20.6744 8.70642 20.8036 8.41772C20.9329 8.12901 20.9998 7.81631 21 7.5V6.75C20.9988 5.7558 20.6033 4.80267 19.9003 4.09966C19.1973 3.39666 18.2442 3.00119 17.25 3ZM4.5 6.75C4.5 6.15326 4.73705 5.58097 5.15901 5.15901C5.58097 4.73705 6.15326 4.5 6.75 4.5H17.25C17.8467 4.5 18.419 4.73705 18.841 5.15901C19.2629 5.58097 19.5 6.15326 19.5 6.75V7.5C19.5 7.69891 19.421 7.88968 19.2803 8.03033C19.1397 8.17098 18.9489 8.25 18.75 8.25H5.25C5.05109 8.25 4.86032 8.17098 4.71967 8.03033C4.57902 7.88968 4.5 7.69891 4.5 7.5V6.75ZM18.75 17.25C18.75 17.8467 18.5129 18.419 18.091 18.841C17.669 19.2629 17.0967 19.5 16.5 19.5H7.5C6.90326 19.5 6.33097 19.2629 5.90901 18.841C5.48705 18.419 5.25 17.8467 5.25 17.25V9.75H18.75V17.25Z" fill="black"/>
</svg>
