<svg width="24" height="24" viewBox="0 0 24 24" fill="none" xmlns="http://www.w3.org/2000/svg">
<path d="M8.66667 4H6.66667C5.95942 4 5.28115 4.28095 4.78105 4.78105C4.28095 5.28114 4 5.95942 4 6.66666L4 8.66666C4 9.3739 4.28095 10.0522 4.78105 10.5523C5.28115 11.0524 5.95942 11.3333 6.66667 11.3333H8.66667C9.37391 11.3333 10.0522 11.0524 10.5523 10.5523C11.0524 10.0522 11.3333 9.3739 11.3333 8.66666V6.66666C11.3333 5.95942 11.0524 5.28114 10.5523 4.78105C10.0522 4.28095 9.37391 4 8.66667 4ZM10 8.66666C10 9.02028 9.85953 9.35942 9.60948 9.60947C9.35943 9.85951 9.02029 9.99999 8.66667 9.99999H6.66667C6.31305 9.99999 5.97391 9.85951 5.72386 9.60947C5.47381 9.35942 5.33333 9.02028 5.33333 8.66666V6.66666C5.33333 6.31304 5.47381 5.9739 5.72386 5.72385C5.97391 5.47381 6.31305 5.33333 6.66667 5.33333H8.66667C9.02029 5.33333 9.35943 5.47381 9.60948 5.72385C9.85953 5.9739 10 6.31304 10 6.66666V8.66666Z" fill="#0065BD"/>
<path d="M8.66667 12.667H6.66667C5.95942 12.667 5.28115 12.9479 4.78105 13.448C4.28095 13.9481 4 14.6264 4 15.3337L4 17.3337C4 18.0409 4.28095 18.7192 4.78105 19.2193C5.28115 19.7194 5.95942 20.0003 6.66667 20.0003H8.66667C9.37391 20.0003 10.0522 19.7194 10.5523 19.2193C11.0524 18.7192 11.3333 18.0409 11.3333 17.3337V15.3337C11.3333 14.6264 11.0524 13.9481 10.5523 13.448C10.0522 12.9479 9.37391 12.667 8.66667 12.667ZM10 17.3337C10 17.6873 9.85953 18.0264 9.60948 18.2765C9.35943 18.5265 9.02029 18.667 8.66667 18.667H6.66667C6.31305 18.667 5.97391 18.5265 5.72386 18.2765C5.47381 18.0264 5.33333 17.6873 5.33333 17.3337V15.3337C5.33333 14.98 5.47381 14.6409 5.72386 14.3908C5.97391 14.1408 6.31305 14.0003 6.66667 14.0003H8.66667C9.02029 14.0003 9.35943 14.1408 9.60948 14.3908C9.85953 14.6409 10 14.98 10 15.3337V17.3337Z" fill="#0065BD"/>
<path d="M17.3346 12.667H15.3346C14.6274 12.667 13.9491 12.9479 13.449 13.448C12.9489 13.9481 12.668 14.6264 12.668 15.3337V17.3337C12.668 18.0409 12.9489 18.7192 13.449 19.2193C13.9491 19.7194 14.6274 20.0003 15.3346 20.0003H17.3346C18.0419 20.0003 18.7202 19.7194 19.2203 19.2193C19.7204 18.7192 20.0013 18.0409 20.0013 17.3337V15.3337C20.0013 14.6264 19.7204 13.9481 19.2203 13.448C18.7202 12.9479 18.0419 12.667 17.3346 12.667ZM18.668 17.3337C18.668 17.6873 18.5275 18.0264 18.2774 18.2765C18.0274 18.5265 17.6883 18.667 17.3346 18.667H15.3346C14.981 18.667 14.6419 18.5265 14.3918 18.2765C14.1418 18.0264 14.0013 17.6873 14.0013 17.3337V15.3337C14.0013 14.98 14.1418 14.6409 14.3918 14.3908C14.6419 14.1408 14.981 14.0003 15.3346 14.0003H17.3346C17.6883 14.0003 18.0274 14.1408 18.2774 14.3908C18.5275 14.6409 18.668 14.98 18.668 15.3337V17.3337Z" fill="#0065BD"/>
<path d="M13.3346 8.66699H15.3346V10.667C15.3346 10.8438 15.4049 11.0134 15.5299 11.1384C15.6549 11.2634 15.8245 11.3336 16.0013 11.3336C16.1781 11.3336 16.3477 11.2634 16.4727 11.1384C16.5977 11.0134 16.668 10.8438 16.668 10.667V8.66699H18.668C18.8448 8.66699 19.0144 8.59675 19.1394 8.47172C19.2644 8.3467 19.3346 8.17713 19.3346 8.00032C19.3346 7.82351 19.2644 7.65394 19.1394 7.52892C19.0144 7.40389 18.8448 7.33365 18.668 7.33365H16.668V5.33366C16.668 5.15685 16.5977 4.98728 16.4727 4.86225C16.3477 4.73723 16.1781 4.66699 16.0013 4.66699C15.8245 4.66699 15.6549 4.73723 15.5299 4.86225C15.4049 4.98728 15.3346 5.15685 15.3346 5.33366V7.33365H13.3346C13.1578 7.33365 12.9883 7.40389 12.8632 7.52892C12.7382 7.65394 12.668 7.82351 12.668 8.00032C12.668 8.17713 12.7382 8.3467 12.8632 8.47172C12.9883 8.59675 13.1578 8.66699 13.3346 8.66699Z" fill="#0065BD"/>
</svg>
