<svg width="16" height="17" viewBox="0 0 16 17" fill="none" xmlns="http://www.w3.org/2000/svg">
<path d="M1.33325 4.49967C1.33325 3.79243 1.6142 3.11415 2.1143 2.61406C2.6144 2.11396 3.29267 1.83301 3.99992 1.83301H11.9999C12.7072 1.83301 13.3854 2.11396 13.8855 2.61406C14.3856 3.11415 14.6666 3.79243 14.6666 4.49967V12.4997C14.6666 13.2069 14.3856 13.8852 13.8855 14.3853C13.3854 14.8854 12.7072 15.1663 11.9999 15.1663H3.99992C3.29267 15.1663 2.6144 14.8854 2.1143 14.3853C1.6142 13.8852 1.33325 13.2069 1.33325 12.4997V4.49967Z" stroke="black" stroke-width="1.2" stroke-linecap="round" stroke-linejoin="round"/>
<path d="M5.66667 7.83333C6.58714 7.83333 7.33333 7.08714 7.33333 6.16667C7.33333 5.24619 6.58714 4.5 5.66667 4.5C4.74619 4.5 4 5.24619 4 6.16667C4 7.08714 4.74619 7.83333 5.66667 7.83333Z" stroke="black" stroke-width="1.2" stroke-linecap="round" stroke-linejoin="round"/>
<path d="M9.684 8.91387L4 15.1665H12.0887C12.7724 15.1665 13.4281 14.8949 13.9116 14.4115C14.3951 13.928 14.6667 13.2723 14.6667 12.5885V12.4999C14.6667 12.1892 14.55 12.0699 14.34 11.8399L11.6533 8.90987C11.5281 8.77328 11.3758 8.66429 11.2061 8.58985C11.0364 8.51542 10.8531 8.47717 10.6678 8.47754C10.4825 8.47792 10.2993 8.51691 10.1299 8.59204C9.96053 8.66717 9.80866 8.77677 9.684 8.91387Z" stroke="black" stroke-width="1.2" stroke-linecap="round" stroke-linejoin="round"/>
</svg>
