<svg width="24" height="24" viewBox="0 0 24 24" fill="none" xmlns="http://www.w3.org/2000/svg">
<path d="M19.0171 10.7223L18.6871 10.9725L18.723 11.385C18.7412 11.5944 18.7502 11.7927 18.7502 12C18.7502 12.2076 18.7411 12.3938 18.7165 12.583L18.6601 13.0147L19.0071 13.2777L20.8629 14.6845C20.9657 14.7658 20.993 14.9032 20.9291 15.0177C20.9287 15.0183 20.9284 15.0189 20.9281 15.0195L19.0611 18.2442L19.0611 18.2442L19.0581 18.2495C18.9965 18.3579 18.8659 18.3986 18.7592 18.3522L18.7592 18.3522L18.7525 18.3493L16.6025 17.4393L16.2193 17.2772L15.8789 17.5164C15.5414 17.7535 15.19 17.9603 14.8248 18.1295L14.4478 18.3042L14.396 18.7166L14.106 21.0266L14.1055 21.0306C14.0907 21.1538 13.9804 21.25 13.8602 21.25H10.1302C10.0099 21.25 9.89959 21.1538 9.88482 21.0306L9.88431 21.0266L9.59431 18.7166L9.54255 18.3042L9.1655 18.1295C8.80031 17.9603 8.44888 17.7535 8.11136 17.5164L7.77096 17.2772L7.38782 17.4393L5.23782 18.3493L5.2378 18.3493L5.23111 18.3522C5.12443 18.3986 4.99383 18.3579 4.93225 18.2495L4.93227 18.2495L4.92922 18.2442L3.06225 15.0195C3.0619 15.0189 3.06156 15.0183 3.06122 15.0177C2.99323 14.8959 3.03211 14.756 3.12015 14.69L3.12016 14.69L3.12323 14.6877L4.98323 13.2777L5.31549 13.0258L5.27694 12.6107C5.23953 12.2078 5.23953 11.8022 5.27694 11.3993L5.31549 10.9842L4.98323 10.7323L3.1274 9.32548C3.0245 9.24412 2.99722 9.10658 3.06139 8.99202L4.92973 5.75491L4.92974 5.75492L4.93225 5.75051C4.99383 5.64212 5.12443 5.60142 5.23111 5.6478L5.23109 5.64784L5.23782 5.65068L7.38782 6.56068L7.77096 6.72285L8.11136 6.48364C8.44888 6.24647 8.80031 6.03972 9.1655 5.87048L9.54255 5.69575L9.59431 5.28342L9.88431 2.97342L9.88432 2.97342L9.88481 2.96936C9.89904 2.85081 10.0053 2.75 10.1402 2.75H13.8702C13.9904 2.75 14.1007 2.84619 14.1155 2.96936L14.1155 2.96936L14.116 2.97342L14.406 5.28342L14.4578 5.69575L14.8348 5.87048C15.2 6.03972 15.5514 6.24647 15.8889 6.48364L16.2293 6.72285L16.6125 6.56068L18.7625 5.65068L18.7625 5.6507L18.7673 5.64862C18.821 5.62546 18.8813 5.62295 18.9367 5.64156C18.9921 5.66018 19.0387 5.6986 19.0675 5.74947L19.0674 5.74948L19.0711 5.75578L20.9381 8.98051C20.9384 8.98111 20.9387 8.9817 20.9391 8.9823C21.0071 9.10404 20.9682 9.24396 20.8801 9.30999L20.8771 9.31232L19.0171 10.7223Z" stroke="black" stroke-width="1.5"/>
<circle cx="12" cy="12" r="3.25" stroke="black" stroke-width="1.5"/>
</svg>
