<svg width="24" height="24" viewBox="0 0 24 24" fill="none" xmlns="http://www.w3.org/2000/svg">
<path d="M15.1111 21H8.88889C6.74456 21 5 19.3177 5 17.25V7.75C5 5.68225 6.74456 4 8.88889 4H15.1111C17.2554 4 19 5.68225 19 7.75V17.25C19 19.3177 17.2554 21 15.1111 21ZM17.4444 7.75C17.4444 6.5095 16.3976 5.5 15.1111 5.5H8.88889C7.60244 5.5 6.55556 6.5095 6.55556 7.75V17.25C6.55556 18.4905 7.60244 19.5 8.88889 19.5H15.1111C16.3976 19.5 17.4444 18.4905 17.4444 17.25V7.75ZM15.8889 16.5C15.8889 16.0853 15.5412 15.75 15.1111 15.75H8.88889C8.45878 15.75 8.11111 16.0853 8.11111 16.5C8.11111 16.9147 8.45878 17.25 8.88889 17.25H15.1111C15.5412 17.25 15.8889 16.9147 15.8889 16.5ZM15.8889 12.75C15.8889 12.3353 15.5412 12 15.1111 12H8.88889C8.45878 12 8.11111 12.3353 8.11111 12.75C8.11111 13.1647 8.45878 13.5 8.88889 13.5H15.1111C15.5412 13.5 15.8889 13.1647 15.8889 12.75ZM12.7778 9C12.7778 8.58525 12.4301 8.25 12 8.25H8.88889C8.45878 8.25 8.11111 8.58525 8.11111 9C8.11111 9.41475 8.45878 9.75 8.88889 9.75H12C12.4301 9.75 12.7778 9.41475 12.7778 9Z" fill="#0065BD"/>
</svg>
