<svg width="24" height="24" viewBox="0 0 24 24" fill="none" xmlns="http://www.w3.org/2000/svg">
<path d="M11.1984 15.1996H15.9984C16.2106 15.1996 16.4141 15.1153 16.5641 14.9653C16.7142 14.8153 16.7984 14.6118 16.7984 14.3996C16.7984 14.1874 16.7142 13.984 16.5641 13.8339C16.4141 13.6839 16.2106 13.5996 15.9984 13.5996H11.1984C10.9863 13.5996 10.7828 13.6839 10.6328 13.8339C10.4827 13.984 10.3984 14.1874 10.3984 14.3996C10.3984 14.6118 10.4827 14.8153 10.6328 14.9653C10.7828 15.1153 10.9863 15.1996 11.1984 15.1996Z" fill="#0065BD"/>
<path d="M16.6667 4H7.33333C6.4496 4.00106 5.60237 4.35259 4.97748 4.97748C4.35259 5.60237 4.00106 6.4496 4 7.33333L4 8C4.00019 8.28116 4.05967 8.55912 4.17454 8.81575C4.28941 9.07237 4.4571 9.30189 4.66667 9.48933V16.6667C4.66773 17.5504 5.01925 18.3976 5.64415 19.0225C6.26904 19.6474 7.11627 19.9989 8 20H16C16.8837 19.9989 17.731 19.6474 18.3559 19.0225C18.9807 18.3976 19.3323 17.5504 19.3333 16.6667V9.48933C19.5429 9.30189 19.7106 9.07237 19.8255 8.81575C19.9403 8.55912 19.9998 8.28116 20 8V7.33333C19.9989 6.4496 19.6474 5.60237 19.0225 4.97748C18.3976 4.35259 17.5504 4.00106 16.6667 4ZM5.33333 7.33333C5.33333 6.8029 5.54405 6.29419 5.91912 5.91912C6.29419 5.54405 6.8029 5.33333 7.33333 5.33333H16.6667C17.1971 5.33333 17.7058 5.54405 18.0809 5.91912C18.456 6.29419 18.6667 6.8029 18.6667 7.33333V8C18.6667 8.17681 18.5964 8.34638 18.4714 8.4714C18.3464 8.59643 18.1768 8.66667 18 8.66667H6C5.82319 8.66667 5.65362 8.59643 5.5286 8.4714C5.40357 8.34638 5.33333 8.17681 5.33333 8V7.33333ZM18 16.6667C18 17.1971 17.7893 17.7058 17.4142 18.0809C17.0391 18.456 16.5304 18.6667 16 18.6667H8C7.46957 18.6667 6.96086 18.456 6.58579 18.0809C6.21071 17.7058 6 17.1971 6 16.6667V10H18V16.6667Z" fill="#0065BD"/>
</svg>
