<svg width="18" height="18" viewBox="0 0 18 18" fill="none" xmlns="http://www.w3.org/2000/svg">
<path d="M1.5 8.99988C1.5 4.85769 4.85781 1.49988 9 1.49988C13.1422 1.49988 16.5 4.85769 16.5 8.99988C16.5 13.1421 13.1422 16.4999 9 16.4999C4.85781 16.4999 1.5 13.1421 1.5 8.99988ZM9.17906 9.54488C10.1084 9.77363 10.3869 10.0768 10.3869 10.5886C10.3869 11.1205 10.0291 11.523 9.17906 11.5877V9.54488ZM8.6175 8.39706C7.8225 8.198 7.52406 7.86519 7.52406 7.41269C7.52406 6.96019 7.90187 6.548 8.61781 6.45863L8.6175 8.39706ZM9.17906 8.53113V6.45863C9.81531 6.538 10.2625 6.90082 10.3272 7.52738H11.3609C11.3212 6.39925 10.4216 5.65363 9.17906 5.55394V4.71425H8.6175V5.55394C7.365 5.64863 6.47062 6.38394 6.47062 7.49738C6.47062 8.50613 7.15156 9.073 8.41375 9.36613L8.6175 9.41581V11.5827C7.8175 11.4983 7.43969 11.0708 7.35031 10.4893H6.32156C6.35594 11.6821 7.35531 12.3927 8.6175 12.4874V13.3221H9.17906V12.4874C10.4466 12.3977 11.4406 11.7071 11.4406 10.4893C11.4406 9.43081 10.725 8.89394 9.41781 8.59081L9.17906 8.53113Z" fill="black"/>
</svg>
