<svg width="74" height="30" viewBox="0 0 74 30" fill="none" xmlns="http://www.w3.org/2000/svg">
<g clip-path="url(#clip0_4253_19998)">
<path d="M71.3628 2.43754C69.6603 0.866826 67.3992 0 64.9934 0C62.5877 0 60.3265 0.866826 58.6241 2.43754C56.9217 4.01477 55.9883 6.10689 55.9883 8.33587C55.9883 10.5648 56.9217 12.6504 58.6241 14.2212C60.3265 15.7984 62.5877 16.6652 64.9934 16.6652C67.3992 16.6652 69.6603 15.7984 71.3628 14.2212C73.0652 12.6504 73.9986 10.5583 73.9986 8.33587C73.9986 6.1134 73.0652 4.01477 71.3628 2.43754ZM64.4347 15.7202C63.9549 15.6876 63.4816 15.6094 63.0215 15.4856C62.3773 15.277 61.7726 14.9707 61.2008 14.5796C62.2459 14.2212 63.3304 14.0191 64.4347 13.9735V15.7202ZM64.4347 13.1132C63.0544 13.1653 61.7003 13.4456 60.412 13.9409C60.2871 13.8236 60.1622 13.7063 60.0505 13.5824C59.6101 13.1132 59.2354 12.5918 58.9265 12.0248C60.7341 11.6728 62.5811 11.4773 64.4347 11.4512V13.1067V13.1132ZM64.4347 10.4345C62.4299 10.4606 60.4317 10.6822 58.4861 11.0732C58.21 10.3433 58.0391 9.56767 57.9865 8.76602H64.4347V10.428V10.4345ZM64.4347 7.8275H57.9931C58.0588 7.02585 58.2363 6.25027 58.5189 5.52683C60.458 5.91788 62.4431 6.13296 64.4413 6.16554V7.8275H64.4347ZM64.4347 5.1423C62.5942 5.11623 60.7604 4.9207 58.9659 4.57528C59.2683 4.04084 59.6232 3.54551 60.0505 3.09581C60.1885 2.95242 60.3331 2.80904 60.4777 2.67869C61.7463 3.16098 63.0741 3.4282 64.4347 3.48686V5.14882V5.1423ZM64.4347 2.62003C63.3567 2.57441 62.2985 2.37237 61.2862 2.03997C62.2327 1.40126 63.3041 1.01021 64.4347 0.905931V2.62003ZM65.5521 0.905931C66.6827 1.01021 67.7541 1.40126 68.7007 2.03997C67.6884 2.37888 66.6301 2.57441 65.5521 2.62003V0.905931ZM65.5521 3.48034C66.9194 3.4282 68.2471 3.15446 69.5157 2.67217C69.6603 2.80252 69.8049 2.9459 69.943 3.08929C70.3637 3.539 70.7252 4.04084 71.0275 4.56876C69.2331 4.91419 67.3992 5.10971 65.5587 5.13578V3.47382L65.5521 3.48034ZM65.5521 6.16554C67.5438 6.13947 69.5354 5.9244 71.4745 5.52683C71.7572 6.25027 71.9346 7.02585 72.0004 7.8275H65.5587V6.16554H65.5521ZM66.9654 15.4856C66.5052 15.6094 66.032 15.6876 65.5521 15.7202V13.9735C66.6564 14.0191 67.741 14.2277 68.7861 14.5796C68.2208 14.9707 67.6095 15.277 66.9654 15.4856ZM69.943 13.5824C69.8247 13.7063 69.7063 13.8301 69.5815 13.9409C68.2931 13.4456 66.9456 13.1653 65.5587 13.1132V11.4577C67.4123 11.4838 69.2594 11.6793 71.067 12.0313C70.758 12.5918 70.3834 13.1132 69.943 13.589M71.5008 11.0732C69.5552 10.6756 67.5569 10.4606 65.5521 10.4345V8.77254H72.0004C71.9478 9.57419 71.7769 10.3498 71.5008 11.0797" fill="#0065BD"/>
<path d="M14.0946 26.6039C11.61 26.6039 10.1902 25.0137 10.1836 22.2372C10.1836 20.8229 10.5977 19.6693 11.3865 18.8872C12.0832 18.1964 13.056 17.8184 14.134 17.8184C16.5201 17.8184 17.999 19.4934 17.999 22.1851C17.999 23.645 17.6046 24.7725 16.829 25.5416C15.8628 26.4997 14.5941 26.6039 14.0946 26.6039ZM14.1143 19.4151C13.8514 19.4151 13.6213 19.5129 13.4307 19.6954C12.9114 20.2103 12.7997 21.3313 12.7997 22.1786C12.7997 24.0621 13.2467 24.9746 14.1537 24.9746C14.3772 24.9746 14.5744 24.8898 14.7388 24.7269C15.2515 24.2185 15.3566 23.0584 15.3566 22.172C15.3566 21.3378 15.2383 19.4086 14.1077 19.4086" fill="#0065BD"/>
<path d="M25.3325 26.5394C24.5898 26.4938 23.8207 26.207 23.8207 25.1968C23.8207 24.1866 23.8207 21.1495 23.8207 21.1169C23.8207 20.1262 23.4329 19.6113 22.7164 19.6113C22.2037 19.6113 21.4478 20.0024 21.4478 21.2603V26.4612H18.812V20.4847C18.812 19.8851 18.7331 18.2361 18.7266 17.9559H20.9877L21.1126 18.9465H21.152L21.1783 18.914C21.737 18.2101 22.7427 17.8125 23.755 17.8125C25.5429 17.8125 26.4565 18.8748 26.4565 20.98V26.4612C26.4565 26.4612 25.9307 26.585 25.3325 26.5459" fill="#0065BD"/>
<path d="M63.3052 26.5394C62.5624 26.4938 61.7934 26.207 61.7934 25.1968C61.7934 24.1866 61.7934 21.1495 61.7934 21.1169C61.7934 20.1262 61.4056 19.6113 60.6891 19.6113C60.1764 19.6113 59.4205 20.0024 59.4205 21.2603V26.4612H56.7847V20.4847C56.7847 19.8851 56.7058 18.2361 56.6992 17.9559H58.9604L59.0918 18.9465H59.1313L59.1576 18.914C59.7163 18.2101 60.722 17.8125 61.7342 17.8125C63.5221 17.8125 64.4358 18.8748 64.4358 20.98V26.4612C64.4358 26.4612 63.9099 26.585 63.3052 26.5459" fill="#0065BD"/>
<path d="M30.5255 29.9999C29.6118 29.9999 28.0212 29.6219 28.0212 29.6219C28.0212 29.6219 28.1329 29.0809 28.2972 28.6638C28.4287 28.3184 28.7705 28.1424 29.3161 28.2141C29.8682 28.2858 30.0588 28.3249 30.4401 28.3249C31.0908 28.3249 31.5969 28.1554 31.9322 27.823C32.3002 27.4581 32.4777 26.9106 32.4777 26.1415V25.5354H32.4383L32.412 25.568C32.0702 26.0829 31.2617 26.4022 30.4861 26.4022C28.1395 26.4022 27.3047 24.271 27.3047 22.2767C27.3047 20.7776 27.7451 19.5067 28.5536 18.7051C29.1517 18.1185 29.9076 17.8057 30.7358 17.8057C31.5641 17.8057 32.3134 18.1511 32.7012 18.7768L32.7209 18.8094H32.7604L32.905 17.9425H35.1924C35.1924 17.9425 35.1004 19.3633 35.1004 20.6082V25.5484C35.1004 27.3212 34.7323 28.364 33.8712 29.0483C33.0693 29.6805 31.9782 29.9868 30.5321 29.9868M31.3932 19.611C31.0645 19.611 30.7884 19.7218 30.5584 19.9499C30.026 20.4778 29.9142 21.4815 29.9142 22.231C29.9142 23.7952 30.4466 24.7272 31.334 24.7272C31.6561 24.7272 32.0833 24.6164 32.3397 24.0625C32.4251 23.8734 32.4777 23.5997 32.4711 23.339V21.0188C32.4711 20.7907 32.4317 20.5495 32.3594 20.354C32.1951 19.8782 31.8336 19.598 31.3932 19.598" fill="#0065BD"/>
<path d="M39.667 26.5652C38.99 26.5652 37.958 26.5 37.5045 25.1313C37.3205 24.5839 35.6377 18.7898 35.3945 17.9556H38.0303L39.4436 23.4368H39.5027C39.5027 23.4368 40.2981 19.9564 40.5807 18.868C40.8502 17.8382 41.4812 17.8643 42.086 17.8643C42.4343 17.8643 42.8353 17.9425 42.8353 17.9425L44.2485 23.4172H44.3208L45.6091 17.9556H48.2515L45.7866 26.4739C45.688 26.5 45.6223 26.5456 45.2871 26.5456C44.5837 26.5456 43.3414 26.6238 42.9339 25.027C42.4935 23.2934 41.8362 20.9536 41.8362 20.9536H41.7573L40.4164 26.4739C40.4164 26.4739 40.0089 26.5652 39.6539 26.5652" fill="#0065BD"/>
<path d="M52.0243 26.6039C49.5396 26.6039 48.1133 25.0137 48.1133 22.2372C48.1133 20.8229 48.5274 19.6693 49.3162 18.8872C50.0129 18.1964 50.9857 17.8184 52.0637 17.8184C54.4498 17.8184 55.9287 19.4934 55.9287 22.1851C55.9287 23.645 55.5343 24.7725 54.7587 25.5416C53.7924 26.4997 52.5238 26.6039 52.0243 26.6039ZM52.044 19.4151C51.7745 19.4151 51.5444 19.5129 51.3604 19.6954C50.8411 20.2103 50.736 21.3313 50.736 22.1786C50.736 24.0621 51.1829 24.9746 52.09 24.9746C52.3135 24.9746 52.5107 24.8898 52.675 24.7269C53.214 24.1925 53.2929 22.8955 53.2929 22.172C53.2929 21.3378 53.1746 19.4086 52.044 19.4086" fill="#0065BD"/>
<path d="M0 24.9295V14.8404C0 14.8404 1.89305 14.5797 3.57577 14.6905C7.53935 14.9708 9.57044 17.6169 9.57044 20.9277C9.57044 23.1111 8.52532 26.5849 3.10908 26.5849C0.670457 26.5849 0.0065731 25.855 0.0065731 24.923M2.63581 16.6849C2.63581 16.6849 2.63581 23.4044 2.63581 23.7042C2.63581 24.004 2.59638 24.6558 3.56262 24.6558C4.89039 24.6558 6.65855 23.7563 6.65855 20.9343C6.65855 19.52 5.91579 16.913 3.67437 16.6718C3.04992 16.6001 2.64239 16.6914 2.64239 16.6914" fill="#0065BD"/>
</g>
<defs>
<clipPath id="clip0_4253_19998">
<rect width="74" height="30" fill="white"/>
</clipPath>
</defs>
</svg>
