<svg width="202" height="65" viewBox="0 0 202 65" fill="none" xmlns="http://www.w3.org/2000/svg">
<path d="M21.9922 11C21.9922 17.0783 17.0645 22 10.9961 22C4.92769 22 0 17.0783 0 11C0 4.92167 4.91993 0 11.0039 0C17.0878 0 22 4.92943 22 11H21.9922Z" fill="white"/>
<path d="M11.0165 21.4893C16.7978 21.4893 21.4849 16.8005 21.4849 11.0094C21.4849 5.21827 16.7978 0.521729 11.0165 0.521729C5.23517 0.521729 0.540283 5.21827 0.540283 11.0094C0.540283 16.8005 5.22741 21.4893 11.0165 21.4893Z" fill="#0083CA"/>
<mask id="mask0_2386_6744" style="mask-type:luminance" maskUnits="userSpaceOnUse" x="0" y="0" width="22" height="22">
<path d="M11.0165 21.4754C16.7978 21.4754 21.4849 16.7866 21.4849 10.9955C21.4849 5.2044 16.7978 0.515625 11.0165 0.515625C5.23517 0.515625 0.540283 5.2044 0.540283 10.9955C0.540283 16.7866 5.22741 21.4754 11.0165 21.4754Z" fill="white"/>
</mask>
<g mask="url(#mask0_2386_6744)">
<path d="M11.1125 16.056C15.722 16.056 19.6642 17.3446 21.3637 19.1611C21.9224 17.8647 22.2328 16.4209 22.2328 14.9226C22.2328 8.90639 17.2508 4.03906 11.1125 4.03906C4.97425 4.03906 0 8.91415 0 14.9304C0 16.4286 0.318166 17.8647 0.876896 19.1611C2.56861 17.3369 6.51852 16.056 11.1203 16.056H11.1125Z" fill="#0083CA"/>
<path d="M11.1183 16.0827C15.7123 16.0827 19.6467 17.3559 21.3384 19.1646C21.8972 17.876 22.2076 16.4476 22.2076 14.9571C22.2076 8.98747 17.2411 4.14343 11.1183 4.14343C4.99559 4.14343 0.0368652 8.98747 0.0368652 14.9649C0.0368652 16.4554 0.347271 17.876 0.906 19.1646C2.58995 17.3559 6.5321 16.0827 11.1183 16.0827Z" fill="#0085CB"/>
<path d="M11.1195 16.071C15.7057 16.071 19.6246 17.3363 21.3163 19.1295C21.875 17.8564 22.1854 16.4358 22.1854 14.9609C22.1854 9.03779 17.2267 4.21704 11.1195 4.21704C5.01225 4.21704 0.0612793 9.03779 0.0612793 14.9609C0.0612793 16.4358 0.371685 17.8487 0.930415 19.1295C2.61437 17.3363 6.541 16.071 11.1195 16.071Z" fill="#0086CD"/>
<path d="M11.1209 16.0899C15.6916 16.0899 19.6027 17.3475 21.2866 19.1252C21.8454 17.8599 22.1558 16.4548 22.1558 14.9876C22.1558 9.11111 17.2126 4.32141 11.1209 4.32141C5.02915 4.32141 0.0859375 9.11887 0.0859375 14.9954C0.0859375 16.4626 0.396343 17.8599 0.955073 19.1252C2.63126 17.3475 6.55013 16.0899 11.1131 16.0899H11.1209Z" fill="#0088CE"/>
<path d="M11.1267 16.1183C15.6896 16.1183 19.5852 17.3604 21.2692 19.1226C21.8279 17.865 22.1306 16.4754 22.1306 15.016C22.1306 9.19385 17.2029 4.41968 11.1267 4.41968C5.05049 4.41968 0.122803 9.20161 0.122803 15.0238C0.122803 16.4754 0.433208 17.865 0.991938 19.1226C2.66813 17.3604 6.57148 16.1183 11.1267 16.1183Z" fill="#008ACF"/>
<path d="M11.1034 16.1172C15.6508 16.1172 19.5464 17.3515 21.2226 19.0982C21.7736 17.8561 22.084 16.4743 22.084 15.0304C22.084 9.25484 17.1641 4.51172 11.1034 4.51172C5.04273 4.51172 0.122803 9.25484 0.122803 15.0304C0.122803 16.4743 0.433208 17.8483 0.991938 19.0982C2.66037 17.3515 6.55595 16.1172 11.1034 16.1172Z" fill="#008CD0"/>
<path d="M11.089 16.1316C15.6287 16.1316 19.5088 17.3582 21.1772 19.0893C21.7282 17.855 22.0386 16.481 22.0386 15.0526C22.0386 9.32359 17.1342 4.60376 11.089 4.60376C5.04387 4.60376 0.147217 9.33135 0.147217 15.0604C0.147217 16.4887 0.457623 17.855 1.00859 19.0893C2.67702 17.3582 6.5571 16.1316 11.089 16.1316Z" fill="#008ED2"/>
<path d="M11.1026 16.1322C15.6268 16.1322 19.4991 17.3432 21.1675 19.0665C21.7185 17.8478 22.0289 16.4815 22.0289 15.0687C22.0289 9.38624 17.1322 4.6897 11.1104 4.6897C5.08849 4.6897 0.184082 9.38624 0.184082 15.0609C0.184082 16.4815 0.494488 17.8322 1.04546 19.0588C2.70613 17.3432 6.5862 16.1244 11.1026 16.1244V16.1322Z" fill="#008FD3"/>
<path d="M11.0962 16.1528C15.6126 16.1528 19.4694 17.3561 21.1301 19.0639C21.681 17.8529 21.9837 16.5021 21.9837 15.0971C21.9837 9.46898 17.1026 4.78796 11.0885 4.78796C5.07435 4.78796 0.20874 9.46898 0.20874 15.0971C0.20874 16.5021 0.519146 17.8451 1.07012 19.0639C2.72302 17.3561 6.59533 16.1528 11.0962 16.1528Z" fill="#0091D4"/>
<path d="M11.1098 16.1733C15.6107 16.1733 19.4675 17.3688 21.1204 19.0534C21.6713 17.8501 21.974 16.5149 21.974 15.1176C21.974 9.53607 17.1084 4.88611 11.1098 4.88611C5.11121 4.88611 0.245605 9.53607 0.245605 15.1253C0.245605 16.5227 0.556011 17.8501 1.09922 19.0534C2.75213 17.361 6.60892 16.1733 11.102 16.1733H11.1098Z" fill="#0093D5"/>
<path d="M11.1032 16.1617C15.5963 16.1617 19.4376 17.3416 21.0905 19.0184C21.6414 17.8307 21.9441 16.5032 21.9441 15.1214C21.9441 9.58651 17.0862 4.95984 11.1109 4.95984C5.13562 4.95984 0.27002 9.58651 0.27002 15.1214C0.27002 16.5032 0.580425 17.8229 1.12363 19.0184C2.76878 17.3416 6.61781 16.1617 11.1032 16.1617Z" fill="#0095D7"/>
<path d="M11.109 16.1884C15.5866 16.1884 19.4201 17.3606 21.0653 19.0219C21.6162 17.8419 21.9189 16.53 21.9189 15.1559C21.9189 9.66759 17.0765 5.06421 11.109 5.06421C5.14145 5.06421 0.306885 9.66759 0.306885 15.1559C0.306885 16.53 0.60953 17.8341 1.1605 19.0219C2.80565 17.3606 6.63916 16.1884 11.109 16.1884Z" fill="#0097D8"/>
<path d="M11.1026 16.2074C15.5725 16.2074 19.3905 17.3718 21.0356 19.0175C21.5866 17.8454 21.8815 16.5412 21.8815 15.1827C21.8815 9.74868 17.0546 5.16858 11.1026 5.16858C5.15059 5.16858 0.331543 9.74868 0.331543 15.1827C0.331543 16.5412 0.634189 17.8454 1.18516 19.0098C2.82255 17.3641 6.6483 16.1996 11.1104 16.1996L11.1026 16.2074Z" fill="#0099D9"/>
<path d="M11.1038 16.2095C15.5581 16.2095 19.3683 17.3584 21.0057 18.9886C21.5489 17.8319 21.8516 16.5355 21.8516 15.1925C21.8516 9.8051 17.0325 5.24829 11.096 5.24829C5.15949 5.24829 0.355957 9.8051 0.355957 15.1925C0.355957 16.5355 0.658603 17.8242 1.20181 18.9886C2.8392 17.3584 6.65719 16.2095 11.096 16.2095H11.1038Z" fill="#009BDA"/>
<path d="M11.0974 16.2223C15.5439 16.2223 19.3386 17.3635 20.976 18.9782C21.5192 17.8293 21.8219 16.5484 21.8219 15.2132C21.8219 9.87232 17.0184 5.34656 11.0974 5.34656C5.17638 5.34656 0.380615 9.88008 0.380615 15.2209C0.380615 16.5562 0.683261 17.837 1.22647 18.9859C2.8561 17.3713 6.66633 16.2301 11.0974 16.2301V16.2223Z" fill="#009DDC"/>
<path d="M11.0863 16.2229C15.5173 16.2229 19.312 17.3485 20.9417 18.9554C21.4849 17.8143 21.7875 16.5489 21.7875 15.2292C21.7875 9.93496 16.9995 5.4325 11.0941 5.4325C5.18859 5.4325 0.392822 9.93496 0.392822 15.2215C0.392822 16.5412 0.695468 17.8143 1.23868 18.9477C2.86831 17.3485 6.66302 16.2151 11.0863 16.2151V16.2229Z" fill="#009FDD"/>
<path d="M11.0844 16.2434C15.5076 16.2434 19.2868 17.3613 20.9087 18.9527C21.4519 17.827 21.7468 16.5695 21.7468 15.2575C21.7468 10.0176 16.9665 5.53064 11.0766 5.53064C5.18665 5.53064 0.429688 10.0176 0.429688 15.2575C0.429688 16.5695 0.732333 17.827 1.27554 18.9527C2.89741 17.369 6.68436 16.2434 11.0921 16.2434H11.0844Z" fill="#00A1DE"/>
<path d="M11.0857 16.2657C15.4935 16.2657 19.2649 17.3758 20.8868 18.9439C21.43 17.826 21.7249 16.584 21.7249 15.2798C21.7249 10.0865 16.9602 5.6228 11.0857 5.6228C5.21131 5.6228 0.454346 10.0942 0.454346 15.2876C0.454346 16.584 0.756991 17.8338 1.29244 18.9517C2.90655 17.3758 6.68574 16.2735 11.0857 16.2735V16.2657Z" fill="#00A3DF"/>
<path d="M11.0913 16.2646C15.4836 16.2646 19.2472 17.3592 20.8613 18.9195C21.4046 17.8094 21.6994 16.5751 21.6994 15.2942C21.6994 10.1474 16.9502 5.71484 11.0913 5.71484C5.23241 5.71484 0.490967 10.1474 0.490967 15.2942C0.490967 16.5829 0.793612 17.8172 1.32906 18.9195C2.94317 17.3592 6.70684 16.2646 11.0913 16.2646Z" fill="#00A5E1"/>
<path d="M11.0927 16.279C15.4772 16.279 19.2253 17.3658 20.8394 18.9106C21.3826 17.8161 21.6775 16.5895 21.6775 15.3164C21.6775 10.2162 16.9361 5.80688 11.1005 5.80688C5.26483 5.80688 0.515625 10.2162 0.515625 15.3164C0.515625 16.5895 0.81827 17.8161 1.35372 18.9106C2.96007 17.3658 6.71598 16.279 11.0927 16.279Z" fill="#00A7E2"/>
<path d="M11.0941 16.2996C15.463 16.2996 19.2112 17.3787 20.8175 18.908C21.353 17.8212 21.6479 16.6102 21.6479 15.3448C21.6479 10.2989 16.9219 5.90515 11.0941 5.90515C5.26621 5.90515 0.540283 10.2989 0.540283 15.3448C0.540283 16.6102 0.842929 17.8212 1.37838 18.9002C2.98473 17.3709 6.72512 16.2919 11.0941 16.2919V16.2996Z" fill="#00A9E3"/>
<path d="M11.0996 16.2941C15.4608 16.2941 19.1935 17.3576 20.7921 18.8714C21.3275 17.7923 21.6224 16.5968 21.6224 15.347C21.6224 10.3477 16.912 5.98499 11.0996 5.98499C5.28731 5.98499 0.576904 10.3477 0.576904 15.347C0.576904 16.5968 0.871789 17.8001 1.40724 18.8714C3.00583 17.3576 6.74621 16.2941 11.0919 16.2941H11.0996Z" fill="#00ABE5"/>
<path d="M11.0933 16.3146C15.4389 16.3146 19.1638 17.3704 20.7624 18.8686C21.2978 17.8051 21.5927 16.6174 21.5927 15.3753C21.5927 10.4226 16.8901 6.08313 11.0933 6.08313C5.29644 6.08313 0.601562 10.4303 0.601562 15.3831C0.601562 16.6251 0.896448 17.8128 1.4319 18.8764C3.03049 17.3781 6.75535 16.3224 11.0933 16.3224V16.3146Z" fill="#00ADE6"/>
<path d="M11.0869 16.3151C15.4248 16.3151 19.1342 17.3631 20.725 18.8458C21.2604 17.7901 21.5553 16.6179 21.5553 15.3914C21.5553 10.4852 16.8682 6.16907 11.0869 6.16907C5.30558 6.16907 0.626221 10.4852 0.626221 15.3836C0.626221 16.6101 0.921106 17.7901 1.45656 18.8381C3.04738 17.3554 6.76449 16.3074 11.0869 16.3074V16.3151Z" fill="#00AFE7"/>
<path d="M11.0636 16.3341C15.386 16.3341 19.0876 17.3666 20.6784 18.8415C21.2139 17.7935 21.501 16.6291 21.501 15.4181C21.501 10.5663 16.8294 6.27344 11.0636 6.27344C5.29783 6.27344 0.626221 10.5663 0.626221 15.4181C0.626221 16.6369 0.921106 17.8013 1.45656 18.8415C3.03962 17.3666 6.74897 16.3341 11.0636 16.3341Z" fill="#00B2E9"/>
<path d="M11.0689 16.3562C15.3836 16.3562 19.0774 17.3809 20.6605 18.8325C21.1959 17.8001 21.4831 16.6434 21.4831 15.4402C21.4831 10.6349 16.8192 6.36536 11.0689 6.36536C5.31868 6.36536 0.662598 10.6427 0.662598 15.4402C0.662598 16.6434 0.957483 17.8001 1.48517 18.8325C3.06824 17.3731 6.76207 16.3562 11.0689 16.3562Z" fill="#00B4EA"/>
<path d="M11.0828 16.3507C15.3819 16.3507 19.068 17.3599 20.6433 18.8038C21.1787 17.7791 21.4658 16.638 21.4658 15.4503C21.4658 10.6916 16.8175 6.44531 11.0828 6.44531C5.34803 6.44531 0.699707 10.6916 0.699707 15.4503C0.699707 16.6457 0.994592 17.7869 1.52228 18.8038C3.09759 17.3599 6.78366 16.3507 11.075 16.3507H11.0828Z" fill="#00B6EB"/>
<path d="M11.0686 16.3758C15.36 16.3758 19.0305 17.3772 20.6058 18.8056C21.1335 17.7964 21.4284 16.6631 21.4284 15.4831C21.4284 10.771 16.7956 6.55579 11.0764 6.55579C5.35717 6.55579 0.724365 10.771 0.724365 15.4831C0.724365 16.6631 1.01925 17.7964 1.54694 18.8056C3.12225 17.3772 6.79279 16.3758 11.0764 16.3758H11.0686Z" fill="#00B8ED"/>
<path d="M11.0822 16.3902C15.3581 16.3902 19.0208 17.3839 20.5884 18.7967C21.1161 17.7953 21.4032 16.6775 21.4032 15.5053C21.4032 10.8475 16.7782 6.64783 11.0745 6.64783C5.37075 6.64783 0.76123 10.8475 0.76123 15.5053C0.76123 16.6775 1.05612 17.7953 1.58381 18.7967C3.15135 17.3839 6.8219 16.3902 11.0822 16.3902Z" fill="#01BBEE"/>
<path d="M11.0756 16.3908C15.3437 16.3908 18.9909 17.3689 20.5585 18.774C21.0862 17.7803 21.3733 16.678 21.3733 15.5213C21.3733 10.9102 16.7638 6.73376 11.0756 6.73376C5.38741 6.73376 0.785645 10.9024 0.785645 15.5136C0.785645 16.6702 1.08053 17.7803 1.60046 18.7662C3.16801 17.3689 6.82303 16.383 11.0756 16.383V16.3908Z" fill="#11BDF0"/>
<path d="M11.077 16.4053C15.3295 16.4053 18.9768 17.3757 20.5288 18.7575C21.0565 17.7793 21.3436 16.6848 21.3436 15.5359C21.3436 10.9713 16.7419 6.82593 11.077 6.82593C5.41207 6.82593 0.810303 10.9791 0.810303 15.5436C0.810303 16.6925 1.10519 17.7871 1.62512 18.7652C3.18491 17.3834 6.83217 16.4131 11.077 16.4131V16.4053Z" fill="#1AC0F1"/>
<path d="M11.0828 16.412C15.3198 16.412 18.9593 17.3746 20.5114 18.7408C21.0391 17.7705 21.3262 16.6837 21.3262 15.5581C21.3262 11.0401 16.7399 6.91797 11.0828 6.91797C5.42565 6.91797 0.847168 11.0401 0.847168 15.5503C0.847168 16.6837 1.13429 17.7705 1.66198 18.7408C3.21401 17.3746 6.85352 16.412 11.0828 16.412Z" fill="#1FC4F4"/>
<path d="M11.0795 16.4436C15.3165 16.4436 18.9483 17.3984 20.4925 18.7569C21.0202 17.7943 21.3074 16.7153 21.3074 15.5896C21.3074 11.1027 16.7289 7.00391 11.0795 7.00391C5.4301 7.00391 0.859375 11.1105 0.859375 15.5896C0.859375 16.7153 1.1465 17.7943 1.67419 18.7569C3.22622 17.3984 6.85797 16.4436 11.0795 16.4436Z" fill="#32C5F4"/>
<path d="M11.0839 16.4797C15.3132 16.4797 18.9372 17.4268 20.4892 18.7775C21.0169 17.8227 21.2963 16.7514 21.2963 15.6336C21.2963 11.1777 16.7256 7.10217 11.0839 7.10217C5.44231 7.10217 0.871582 11.1777 0.871582 15.6258C0.871582 16.7437 1.15871 17.8149 1.67864 18.7698C3.23067 17.419 6.85465 16.472 11.0762 16.472L11.0839 16.4797Z" fill="#3FC7F4"/>
<path d="M11.0809 16.4912C15.3024 16.4912 18.9264 17.4305 20.4706 18.7735C20.9906 17.8187 21.2777 16.7629 21.2777 15.6528C21.2777 11.228 16.707 7.17578 11.0809 7.17578C5.45476 7.17578 0.884033 11.228 0.884033 15.6528C0.884033 16.7629 1.17116 17.8264 1.69109 18.7813C3.24312 17.4383 6.85934 16.499 11.0731 16.499L11.0809 16.4912Z" fill="#4AC8F5"/>
<path d="M11.0653 16.5306C15.2868 16.5306 18.8953 17.4699 20.4396 18.7974C20.9595 17.8503 21.2466 16.7945 21.2466 15.6922C21.2466 11.2907 16.6837 7.26172 11.0576 7.26172C5.43147 7.26172 0.884033 11.2984 0.884033 15.6922C0.884033 16.7945 1.17116 17.8503 1.69109 18.7974C3.23535 17.4621 6.85158 16.5306 11.0653 16.5306Z" fill="#54CAF5"/>
<path d="M11.0742 16.5544C15.288 16.5544 18.8964 17.486 20.4407 18.8057C20.9606 17.8664 21.2478 16.8184 21.2478 15.7238C21.2478 11.3533 16.6926 7.34766 11.0742 7.34766C5.45589 7.34766 0.908447 11.3611 0.908447 15.7238C0.908447 16.8184 1.19557 17.8664 1.7155 18.8057C3.25977 17.4782 6.86823 16.5544 11.0742 16.5544Z" fill="#5CCCF5"/>
<path d="M11.0665 16.5659C15.2725 16.5659 18.8809 17.4897 20.4174 18.8016C20.9374 17.8701 21.2245 16.8299 21.2245 15.7431C21.2245 11.4036 16.6771 7.42126 11.0665 7.42126C5.45589 7.42126 0.908447 11.4036 0.908447 15.7431C0.908447 16.8299 1.19557 17.8779 1.7155 18.8094C3.25977 17.4975 6.86824 16.5737 11.0587 16.5737L11.0665 16.5659Z" fill="#64CDF6"/>
<path d="M11.0632 16.6099C15.2614 16.6099 18.8621 17.5259 20.3986 18.83C20.9185 17.9063 21.2056 16.8738 21.2056 15.787C21.2056 11.4786 16.666 7.51953 11.0632 7.51953C5.46033 7.51953 0.920654 11.4786 0.920654 15.787C0.920654 16.8738 1.20778 17.9063 1.72771 18.83C3.27198 17.5259 6.87268 16.6099 11.0632 16.6099Z" fill="#6CCFF6"/>
<path d="M11.0723 16.6337C15.2705 16.6337 18.8635 17.542 20.4 18.8384C20.9199 17.9146 21.207 16.8899 21.207 15.8186C21.207 11.5412 16.6673 7.60547 11.0801 7.60547C5.49275 7.60547 0.945312 11.5412 0.945312 15.8264C0.945312 16.9054 1.23244 17.9301 1.75237 18.8461C3.28887 17.5497 6.88958 16.6415 11.0723 16.6415V16.6337Z" fill="#73D1F6"/>
<path d="M11.0568 16.6514C15.2472 16.6514 18.8402 17.5597 20.3689 18.8406C20.8889 17.9245 21.1682 16.9076 21.1682 15.8441C21.1682 11.59 16.6363 7.6853 11.049 7.6853C5.46171 7.6853 0.945312 11.59 0.945312 15.8441C0.945312 16.9154 1.23244 17.9323 1.74461 18.8483C3.28111 17.5597 6.87406 16.6514 11.0568 16.6514Z" fill="#7AD2F7"/>
<path d="M11.0781 16.6891C15.2608 16.6891 18.846 17.5896 20.3825 18.8705C20.9025 17.9622 21.1818 16.9531 21.1818 15.8895C21.1818 11.6665 16.6577 7.77734 11.0781 7.77734C5.49858 7.77734 0.982178 11.6665 0.982178 15.8895C0.982178 16.9531 1.2693 17.9622 1.78147 18.8705C3.31798 17.5896 6.90316 16.6891 11.0781 16.6891Z" fill="#81D4F7"/>
<path d="M11.0704 16.7191C15.2453 16.7191 18.8305 17.6118 20.3592 18.8849C20.8792 17.9844 21.1585 16.983 21.1585 15.9273C21.1585 11.7353 16.6421 7.86938 11.0704 7.86938C5.49858 7.86938 0.982178 11.7275 0.982178 15.9195C0.982178 16.9752 1.2693 17.9767 1.78147 18.8771C3.31022 17.604 6.8954 16.7113 11.0626 16.7113L11.0704 16.7191Z" fill="#88D6F8"/>
<path d="M11.067 16.7307C15.242 16.7307 18.8194 17.6157 20.3404 18.881C20.8526 17.9883 21.1397 16.9869 21.1397 15.9466C21.1397 11.7857 16.6311 7.94312 11.067 7.94312C5.50303 7.94312 0.994385 11.778 0.994385 15.9389C0.994385 16.9869 1.28151 17.9805 1.79368 18.881C3.32243 17.6157 6.89985 16.7307 11.067 16.7307Z" fill="#8ED8F8"/>
<path d="M11.0762 16.7623C15.2434 16.7623 18.813 17.6395 20.3418 18.8971C20.854 18.0044 21.1411 17.0185 21.1411 15.9782C21.1411 11.8406 16.6324 8.02905 11.0839 8.02905C5.53544 8.02905 1.01904 11.8484 1.01904 15.9782C1.01904 17.0185 1.30617 18.0044 1.81834 18.8971C3.34708 17.6473 6.91675 16.7623 11.0762 16.7623Z" fill="#94DAF8"/>
<path d="M11.0851 16.7983C15.2445 16.7983 18.8142 17.6755 20.3352 18.9176C20.8473 18.0326 21.1345 17.0545 21.1345 16.022C21.1345 11.9155 16.6336 8.1272 11.0851 8.1272C5.53658 8.1272 1.04346 11.9155 1.04346 16.022C1.04346 17.0545 1.33058 18.0326 1.84275 18.9176C3.36374 17.6755 6.9334 16.7983 11.0851 16.7983Z" fill="#9BDCF9"/>
<path d="M11.0773 16.8037C15.229 16.8037 18.7909 17.6732 20.3119 18.9075C20.8241 18.0303 21.1112 17.0599 21.1112 16.0352C21.1112 11.9597 16.6181 8.1947 11.0773 8.1947C5.53658 8.1947 1.04346 11.9597 1.04346 16.0352C1.04346 17.0599 1.33058 18.0303 1.83499 18.9152C3.35598 17.6809 6.91788 16.8115 11.0696 16.8115L11.0773 16.8037Z" fill="#A1DDF9"/>
<path d="M11.0865 16.8493C15.2381 16.8493 18.7923 17.711 20.3133 18.9375C20.8254 18.0681 21.1048 17.0977 21.1048 16.0808C21.1048 12.0363 16.6194 8.28687 11.0865 8.28687C5.55348 8.28687 1.06812 12.0363 1.06812 16.0808C1.06812 17.0977 1.34748 18.0681 1.85965 18.9375C3.38064 17.711 6.93478 16.8493 11.0787 16.8493H11.0865Z" fill="#A7DFF9"/>
<path d="M11.0831 16.8793C15.2271 16.8793 18.7812 17.7332 20.2944 18.9519C20.8066 18.0825 21.086 17.1277 21.086 16.1185C21.086 12.0973 16.6006 8.37891 11.0831 8.37891C5.56568 8.37891 1.08032 12.1051 1.08032 16.1185C1.08032 17.1277 1.36745 18.0903 1.87186 18.9519C3.39284 17.7332 6.94699 16.8793 11.0831 16.8793Z" fill="#ADE1FA"/>
<path d="M11.0798 16.8908C15.216 16.8908 18.7624 17.7369 20.2756 18.9479C20.7878 18.0862 21.0671 17.1392 21.0671 16.1378C21.0671 12.1476 16.5895 8.45251 11.0721 8.45251C5.55461 8.45251 1.09253 12.1476 1.09253 16.13C1.09253 17.1314 1.37189 18.0862 1.88406 18.9402C3.39729 17.7292 6.95144 16.883 11.0798 16.883V16.8908Z" fill="#B3E3FA"/>
<path d="M11.089 16.9269C15.2174 16.9269 18.7638 17.7731 20.277 18.9686C20.7892 18.1146 21.0685 17.1676 21.0685 16.1817C21.0685 12.2226 16.5987 8.55078 11.089 8.55078C5.57927 8.55078 1.11719 12.2226 1.11719 16.1739C1.11719 17.1676 1.39655 18.1146 1.90872 18.9686C3.42195 17.7731 6.96834 16.9269 11.089 16.9269Z" fill="#B8E5FA"/>
<path d="M11.0812 16.9646C15.2096 16.9646 18.7482 17.803 20.2537 18.9907C20.7581 18.1446 21.0452 17.2053 21.0452 16.2194C21.0452 12.2914 16.5832 8.64282 11.0812 8.64282C5.57927 8.64282 1.11719 12.2914 1.11719 16.2194C1.11719 17.2053 1.39655 18.1446 1.90872 18.9907C3.42195 17.803 6.96057 16.9646 11.0812 16.9646Z" fill="#BEE7FB"/>
<path d="M11.0779 16.97C15.1985 16.97 18.7294 17.8007 20.2349 18.9806C20.7393 18.1422 21.0264 17.2107 21.0264 16.2326C21.0264 12.3278 16.5721 8.71033 11.0779 8.71033C5.58372 8.71033 1.12939 12.3278 1.12939 16.2326C1.12939 17.2107 1.40876 18.1422 1.91317 18.9806C3.4264 17.8007 6.95726 16.97 11.0701 16.97H11.0779Z" fill="#C4E9FB"/>
<path d="M11.0624 17.0062C15.1753 17.0062 18.7061 17.8291 20.2116 19.0013C20.716 18.1629 21.0031 17.2468 21.0031 16.2765C21.0031 12.4028 16.5488 8.80859 11.0701 8.80859C5.59148 8.80859 1.12939 12.4028 1.12939 16.2765C1.12939 17.2546 1.40876 18.1706 1.91317 19.009C3.41864 17.8368 6.9495 17.014 11.0546 17.014L11.0624 17.0062Z" fill="#CAEBFC"/>
<path d="M11.0593 17.0395C15.1644 17.0395 18.6953 17.8623 20.193 19.019C20.6974 18.1884 20.9768 17.2723 20.9768 16.3097C20.9768 12.4671 16.5302 8.88843 11.0515 8.88843C5.57288 8.88843 1.14185 12.4671 1.14185 16.3097C1.14185 17.2801 1.42121 18.1884 1.92562 19.019C3.43109 17.8546 6.95419 17.0395 11.0593 17.0395Z" fill="#CFEDFC"/>
<path d="M11.0682 17.051C15.1733 17.051 18.6887 17.8661 20.1864 19.015C20.6908 18.1921 20.9701 17.2838 20.9701 16.329C20.9701 12.5174 16.5313 8.96204 11.0604 8.96204C5.58954 8.96204 1.16626 12.5174 1.16626 16.329C1.16626 17.2916 1.44562 18.1921 1.95003 19.015C3.4555 17.8583 6.97084 17.051 11.0682 17.051Z" fill="#D5EFFC"/>
<path d="M11.0604 17.0932C15.1578 17.0932 18.6731 17.9006 20.1708 19.0417C20.6752 18.2266 20.9546 17.3261 20.9546 16.379C20.9546 12.5908 16.5236 9.06641 11.0604 9.06641C5.5973 9.06641 1.16626 12.5908 1.16626 16.3713C1.16626 17.3261 1.44562 18.2188 1.95003 19.0417C3.44774 17.8928 6.96308 17.0932 11.0527 17.0855L11.0604 17.0932Z" fill="#DAF1FD"/>
<path d="M11.0696 17.1248C15.1592 17.1248 18.6745 17.9244 20.1645 19.0578C20.6689 18.2504 20.9482 17.3577 20.9482 16.4106C20.9482 12.6534 16.5172 9.15234 11.0696 9.15234C5.62196 9.15234 1.19092 12.6612 1.19092 16.4184C1.19092 17.3655 1.47028 18.2582 1.97469 19.0655C3.4724 17.9322 6.98774 17.1326 11.0696 17.1326V17.1248Z" fill="#E0F3FD"/>
<path d="M11.0663 17.1363C15.1481 17.1363 18.6557 17.9281 20.1456 19.0538C20.6423 18.2464 20.9294 17.3615 20.9294 16.4299C20.9294 12.7037 16.5061 9.22595 11.0663 9.22595C5.6264 9.22595 1.20312 12.7037 1.20312 16.4299C1.20312 17.3692 1.48249 18.2542 1.97914 19.0538C3.47685 17.9281 6.98443 17.1363 11.0585 17.1286L11.0663 17.1363Z" fill="#E6F5FD"/>
<path d="M11.0754 17.1679C15.1572 17.1679 18.6571 17.9597 20.147 19.0698C20.6436 18.2703 20.9308 17.393 20.9308 16.4693C20.9308 12.7741 16.5153 9.31189 11.0754 9.31189C5.63554 9.31189 1.22778 12.7741 1.22778 16.4693C1.22778 17.4008 1.50715 18.278 2.0038 19.0776C3.49374 17.9597 7.00133 17.1757 11.0754 17.1679Z" fill="#EBF7FE"/>
<path d="M11.0676 17.1995C15.1417 17.1995 18.6338 17.9836 20.1237 19.0859C20.6204 18.2941 20.9075 17.4246 20.9075 16.5009C20.9075 12.829 16.4997 9.39783 11.0676 9.39783C5.63554 9.39783 1.22778 12.8445 1.22778 16.5086C1.22778 17.4324 1.50715 18.3018 2.0038 19.0937C3.49374 17.9836 6.99356 17.1995 11.0599 17.1995H11.0676Z" fill="#F1FAFE"/>
<path d="M11.0765 17.2173C15.1428 17.2173 18.6349 17.9935 20.1249 19.0881C20.6215 18.3041 20.9009 17.4424 20.9009 16.5264C20.9009 12.8856 16.5009 9.47766 11.0765 9.47766C5.6522 9.47766 1.2522 12.8933 1.2522 16.5264C1.2522 17.4424 1.53156 18.3041 2.02821 19.0959C3.51816 17.9935 7.01022 17.2173 11.0688 17.2173H11.0765Z" fill="#F7FCFE"/>
<path d="M11.0732 17.2456C15.1395 17.2456 18.6238 18.0142 20.106 19.1087C20.6027 18.3325 20.882 17.4708 20.882 16.5703C20.882 12.9605 16.482 9.57593 11.0732 9.57593C5.6644 9.57593 1.2644 12.9605 1.2644 16.5625C1.2644 17.4708 1.54377 18.3247 2.04042 19.1087C3.53037 18.0142 7.01467 17.2456 11.0732 17.2456Z" fill="white"/>
</g>
<path d="M11.0001 13.6456C7.44594 13.6456 4.14788 14.2511 1.42407 15.2758C3.06146 18.9322 6.72425 21.4861 11.0001 21.4861C15.2759 21.4861 18.931 18.9322 20.5683 15.2758C17.8445 14.2511 14.5465 13.6456 11.0001 13.6456Z" fill="#0083CA"/>
<path d="M37.08 0.822C41.091 0.822 43.758 3.195 43.758 5.82C43.758 8.508 41.091 10.818 37.08 10.818C33.027 10.818 30.402 8.508 30.402 5.82C30.402 3.195 33.027 0.822 37.08 0.822ZM37.08 2.187C34.581 2.187 33.006 3.804 33.006 5.82C33.006 7.752 34.581 9.453 37.08 9.453C39.579 9.453 41.154 7.752 41.154 5.82C41.154 3.804 39.579 2.187 37.08 2.187ZM27.777 14.115V12.75H46.383V14.115H38.382V20.772H35.778V14.115H27.777ZM63.8122 1.851V20.541H61.2292V14.472C60.6202 14.976 59.0032 15.018 58.3312 15.018H50.3722C49.5952 15.018 48.5662 14.724 48.5662 13.779V8.634C48.5662 8.193 48.5032 7.878 48.3142 7.479H55.2232V3.111H48.4612V1.746H57.0292C57.6382 1.746 57.8272 1.935 57.8272 2.418V8.172C57.8272 8.655 57.6592 8.844 57.0502 8.844H51.1702V13.002C51.1702 13.422 51.2752 13.653 51.8842 13.653H58.9192C59.8432 13.653 61.2292 13.38 61.2292 12.225V2.796C61.2292 2.46 61.2292 1.473 60.9772 1.158H62.8882C63.4972 1.158 63.8122 1.389 63.8122 1.851ZM82.3544 9.243H85.0214V10.587H66.4154V9.243H79.2254C79.8974 9.243 80.1074 8.697 80.1074 8.13V2.733H68.5364V1.368H81.6824C82.3334 1.368 82.7114 1.767 82.7114 2.25V7.689C82.7114 8.382 82.6694 8.634 82.3544 9.243ZM68.3684 13.632H82.7114V20.541H70.7624C69.7964 20.541 68.7254 20.184 68.7254 19.05V14.892C68.7254 14.472 68.6414 13.968 68.3684 13.632ZM80.1074 19.176V14.997H71.3294V18.546C71.3294 18.945 71.5184 19.176 72.0224 19.176H80.1074ZM95.0375 0.611999C99.0485 0.611999 101.779 2.481 101.779 4.749C101.779 7.08 99.0485 8.907 95.0375 8.907C90.9845 8.907 88.2965 7.08 88.2965 4.749C88.2965 2.481 90.9845 0.611999 95.0375 0.611999ZM90.9005 4.749C90.9005 6.282 92.5385 7.542 95.0375 7.542C97.5365 7.542 99.1745 6.282 99.1745 4.749C99.1745 3.237 97.5365 1.977 95.0375 1.977C92.5385 1.977 90.9005 3.237 90.9005 4.749ZM85.7345 11.448V10.083H104.341V11.448H99.7205V13.989C101.086 14.745 101.884 15.837 101.884 17.034C101.884 19.365 99.0485 21.192 95.0375 21.192C91.0055 21.192 88.1915 19.365 88.1915 17.034C88.1915 15.837 88.9895 14.724 90.3545 13.968V11.448H85.7345ZM95.0375 12.897C95.7725 12.897 96.4655 12.96 97.1165 13.086V11.448H92.9585V13.086C93.6095 12.96 94.3025 12.897 95.0375 12.897ZM90.7955 17.034C90.7955 18.567 92.5385 19.827 95.0375 19.827C97.5365 19.827 99.2795 18.567 99.2795 17.034C99.2795 15.522 97.5365 14.262 95.0375 14.262C92.5385 14.262 90.7955 15.522 90.7955 17.034ZM105.789 12.519L105.117 11.427C109.842 9.768 112.509 6.66 113.013 3.447C113.055 3.216 112.992 3.111 112.803 3.111H106.02V1.746H115.449C115.932 1.746 116.142 1.977 116.079 2.46C116.016 2.964 115.953 3.426 115.806 3.909H119.544V2.796C119.544 2.46 119.544 1.473 119.292 1.158H121.224C121.833 1.158 122.148 1.389 122.148 1.83V11.763H119.544V9.642H114.609V8.277H119.544V5.274H115.365C114 8.697 110.808 11.343 105.789 12.519ZM109.758 16.698C109.758 14.094 112.425 12.204 115.932 12.204C119.46 12.204 122.127 14.094 122.127 16.698C122.127 19.302 119.46 21.192 115.932 21.192C112.425 21.192 109.758 19.302 109.758 16.698ZM112.362 16.698C112.362 18.525 113.874 19.827 115.953 19.827C118.032 19.827 119.544 18.525 119.544 16.698C119.544 14.871 118.032 13.569 115.953 13.569C113.874 13.569 112.362 14.871 112.362 16.698ZM141.467 1.83V11.91H138.863V8.991H134.222C133.235 10.314 131.639 11.112 129.77 11.112C126.746 11.112 124.373 8.991 124.373 6.135C124.373 3.279 126.746 1.158 129.77 1.158C131.681 1.158 133.298 1.956 134.243 3.3H138.863V2.796C138.863 2.439 138.842 1.494 138.611 1.158H140.522C141.152 1.158 141.467 1.389 141.467 1.83ZM126.977 6.135C126.977 8.235 128.153 9.747 129.77 9.747C131.366 9.747 132.542 8.235 132.542 6.135C132.542 4.035 131.366 2.523 129.77 2.523C128.153 2.523 126.977 4.035 126.977 6.135ZM138.863 4.665H134.915C135.062 5.148 135.146 5.652 135.146 6.135C135.146 6.639 135.062 7.143 134.915 7.626H138.863V4.665ZM129.077 16.698C129.077 14.094 131.744 12.204 135.251 12.204C138.779 12.204 141.446 14.094 141.446 16.698C141.446 19.302 138.779 21.192 135.251 21.192C131.744 21.192 129.077 19.302 129.077 16.698ZM131.681 16.698C131.681 18.525 133.193 19.827 135.272 19.827C137.351 19.827 138.863 18.525 138.863 16.698C138.863 14.871 137.351 13.569 135.272 13.569C133.193 13.569 131.681 14.871 131.681 16.698ZM160.786 1.83V14.829H158.182V9.285H154.108C153.079 10.65 151.399 11.532 149.404 11.532C146.212 11.532 143.692 9.264 143.692 6.345C143.692 3.426 146.212 1.158 149.404 1.158C151.336 1.158 152.995 1.977 154.024 3.3H158.182V2.796C158.182 2.439 158.161 1.494 157.93 1.158H159.841C160.471 1.158 160.786 1.389 160.786 1.83ZM146.296 6.345C146.296 8.55 147.577 10.167 149.404 10.167C151.189 10.167 152.491 8.55 152.491 6.345C152.491 4.14 151.189 2.523 149.404 2.523C147.577 2.523 146.296 4.14 146.296 6.345ZM158.182 4.665H154.801C154.99 5.211 155.095 5.778 155.095 6.345C155.095 6.891 155.011 7.416 154.843 7.92H158.182V4.665ZM148.312 19.323V14.913C148.312 14.682 148.333 14.136 148.018 13.947H150.391C150.748 13.947 150.916 14.157 150.916 14.556V18.525C150.916 19.008 151.042 19.176 151.609 19.176H160.912V20.541H150.118C149.299 20.541 148.312 20.331 148.312 19.323ZM178.95 11.091H181.617V12.456H173.616V20.772H171.012V12.456H163.011V11.091H175.821C176.493 11.091 176.703 10.566 176.703 9.999V2.901H165.111V1.536H178.278C178.929 1.536 179.307 1.935 179.307 2.418V9.558C179.307 10.167 179.265 10.524 178.95 11.091ZM184.199 11.931L183.443 10.881C187.958 8.634 190.163 5.841 190.394 2.334C190.415 2.019 190.31 1.788 190.163 1.599L189.932 1.431H192.641C192.725 1.431 192.809 1.452 192.893 1.473C193.145 1.578 193.271 1.83 193.25 2.187C193.166 3.279 192.872 4.329 192.347 5.316C194.384 7.059 196.862 8.508 199.823 9.747L198.5 11.763C195.791 10.188 193.502 8.529 191.675 6.429C189.869 9.033 186.845 10.923 184.199 11.931ZM192.935 17.475H200.936V18.84H182.33V17.475H190.331V13.065C190.331 12.687 190.373 11.763 190.1 11.448H192.011C192.62 11.448 192.935 11.679 192.935 12.12V17.475Z" fill="black"/>
<path d="M30.636 31.28V63.356H26.172V32.936C26.172 32.324 26.172 30.74 25.776 30.128H29.016C30.096 30.128 30.636 30.524 30.636 31.28ZM2.7 54.248L1.44 52.592C10.26 48.164 14.76 42.044 15.372 33.98C15.408 33.512 15.264 33.44 15.012 33.44H2.988V31.136H18.864C19.764 31.136 20.232 31.496 20.196 32.252C19.728 43.16 13.896 50.468 2.7 54.248ZM39.4906 41.18C39.4906 38.624 41.0746 36.572 43.5226 35.168H37.7986V32.864H48.5626V31.316C48.5626 30.776 48.4906 29.732 48.1666 29.3H51.4426C52.4866 29.3 53.0266 29.696 53.0266 30.452V32.864H63.7546V35.168H57.9946C60.4426 36.572 62.0266 38.624 62.0266 41.18C62.0266 45.68 56.9866 48.92 50.7586 48.92C44.5306 48.92 39.4906 45.68 39.4906 41.18ZM43.9186 41.18C43.9186 44.42 46.9786 46.58 50.7586 46.58C54.5026 46.58 57.5626 44.42 57.5626 41.18C57.5626 37.94 54.5026 35.78 50.7586 35.78C46.9786 35.78 43.9186 37.94 43.9186 41.18ZM34.8106 53.384V51.044H66.7066V53.384H52.9906V63.752H48.5266V53.384H34.8106ZM95.6132 43.988H100.185V46.292H68.2892V43.988H90.2492C91.4012 43.988 91.7612 43.052 91.7612 42.08V32.828H71.9252V30.488H94.4612C95.5772 30.488 96.2252 31.172 96.2252 32V41.324C96.2252 42.512 96.1532 42.944 95.6132 43.988ZM71.6372 51.512H96.2252V63.356H75.7412C74.0852 63.356 72.2492 62.744 72.2492 60.8V53.672C72.2492 52.952 72.1052 52.088 71.6372 51.512ZM91.7612 61.016V53.852H76.7132V59.936C76.7132 60.62 77.0372 61.016 77.9012 61.016H91.7612ZM117.716 29.192C124.592 29.192 129.272 32.396 129.272 36.284C129.272 40.28 124.592 43.412 117.716 43.412C110.768 43.412 106.16 40.28 106.16 36.284C106.16 32.396 110.768 29.192 117.716 29.192ZM110.624 36.284C110.624 38.912 113.432 41.072 117.716 41.072C122 41.072 124.808 38.912 124.808 36.284C124.808 33.692 122 31.532 117.716 31.532C113.432 31.532 110.624 33.692 110.624 36.284ZM101.768 47.768V45.428H133.664V47.768H125.744V52.124C128.084 53.42 129.452 55.292 129.452 57.344C129.452 61.34 124.592 64.472 117.716 64.472C110.804 64.472 105.98 61.34 105.98 57.344C105.98 55.292 107.348 53.384 109.688 52.088V47.768H101.768ZM117.716 50.252C118.976 50.252 120.164 50.36 121.28 50.576V47.768H114.152V50.576C115.268 50.36 116.456 50.252 117.716 50.252ZM110.444 57.344C110.444 59.972 113.432 62.132 117.716 62.132C122 62.132 124.988 59.972 124.988 57.344C124.988 54.752 122 52.592 117.716 52.592C113.432 52.592 110.444 54.752 110.444 57.344ZM138.378 31.712H163.902V34.052H159.726V46.4H163.902V48.74H153.426V58.1H167.142V60.44H135.246V58.1H148.962V48.74H138.378V46.4H142.662V34.052H138.378V31.712ZM147.126 34.052V46.4H155.262V34.052H147.126ZM187.589 39.884V37.544H193.565V32.936C193.565 32.324 193.565 30.74 193.169 30.128H196.445C197.489 30.128 198.029 30.524 198.029 31.28V47.948H193.565V45.824C192.737 46.292 191.081 46.472 189.965 46.472H173.873C172.145 46.472 170.381 45.752 170.381 43.736V33.404C170.381 32.72 170.237 31.676 169.769 31.136H188.273V33.476H174.845V37.544H185.105V39.884H174.845V43.304C174.845 43.844 175.133 44.132 175.709 44.132H190.649C191.765 44.132 193.025 43.952 193.565 43.268V39.884H187.589ZM198.209 61.016V63.356H179.741C178.301 63.356 176.645 62.852 176.645 61.16V57.344C176.645 56.588 176.573 55.976 176.249 55.292H193.565V52.052H176.429V49.712H198.029V57.632H181.109V59.9C181.109 60.728 181.289 61.016 182.297 61.016H198.209Z" fill="black"/>
</svg>
